<?xml version="1.0" encoding="UTF-8" standalone="no"?>
<svg class="canvas" version="1.1" xmlns="http://www.w3.org/2000/svg" xmlns:xlink="http://www.w3.org/1999/xlink"
                    width="100%" height="100%">
    <defs class="[object Object]"></defs>
    <g class="logo-entity" id="symbol" transform="translate(91.5, 130.16661834716797) scale(1.6)">
        <g class="logo-entity-inner">
            <g class="[object Object]" data-noun-id="23853" data-attribution="" transform="scale(0.9976854234043214)">
                <g>
                    <path fill-rule="evenodd" clip-rule="evenodd" d="M36.163,71.443c0.794,0.611,1.527,1.283,2.48,1.736   c0.692-1.098,1.815-2.092,2.108-3.597c0.112-0.568-0.075-1.135,0-1.738c0.172-1.372,0.658-2.773,0.746-4.217   c-0.16-0.006-0.172-0.159-0.373-0.124c-0.983,1.395-2.182,3.165-1.985,5.335C38.094,69.652,36.893,70.313,36.163,71.443z"
                        transform="translate(0,-2)" fill="#000000"></path>
                    <path fill-rule="evenodd" clip-rule="evenodd" d="M41.87,74.296c0.473,0.726,1.809,0.589,2.356,1.241   c4.033,0.93,7.601,2.322,10.667,4.218c0.474-2.71-0.146-5.391-0.992-7.195c-0.915-0.588-1.603-1.345-1.736-2.48   c-0.164-1.382-0.508-2.171-0.621-3.35c-0.041-0.438,0.084-0.966,0-1.364c-0.06-0.288-0.345-0.541-0.495-0.868   c-0.601-1.309-1.196-2.368-2.357-2.854c-0.187,0.525,0.33,0.982,0.125,1.116c-0.201-0.677-0.715-0.264-0.745,0.248   c0.023-0.355,0.016-0.677-0.373-0.62c-0.39,0.089,0.341,0.709,0,0.745c-0.797-0.442-0.436-2.044-1.364-2.357   c-0.507,1.353-0.378,3.343-1.364,4.218c-0.167,1.871-1.118,3.749-0.248,5.583c-0.482,0.096-0.697,0.459-1.117,0.619   C43.226,72.428,42.249,73.064,41.87,74.296z"
                        transform="translate(0,-2)" fill="#000000"></path>
                    <path fill-rule="evenodd" clip-rule="evenodd" d="M58.244,81.243c1.354,0.299,2.365,0.941,3.845,1.117   c0.047-0.487,0.408-0.809,0.619-1.241c1.04-2.119,1.064-5.258,1.118-8.558c-1.257-1.728-3.101-2.79-4.342-4.519   C59.141,67.564,59.068,67,58.367,67c-0.083,0-0.165,0-0.248,0c0.106,1,0.71,2.938,0.868,4.764c0.278,0.42,0.817-0.514,0.868-0.284   C58.801,74.228,58.049,77.245,58.244,81.243z"
                        transform="translate(0,-2)" fill="#000000"></path>
                    <path fill-rule="evenodd" clip-rule="evenodd" d="M49.974,2C22.374,2,0,24.374,0,51.974c0,13.99,5.756,26.632,15.021,35.703   c-0.224-0.601-0.122-1.231,0.178-1.844c2.188-1.072,3.373-3.233,3.226-6.327c-0.034-0.702-0.479-1.768-0.249-2.729   c0.978-0.79,1.816-0.451,2.729-0.621c1.645-0.305,2.944-1.497,3.969-2.231c0.417-0.3,0.907-0.447,1.365-0.745   c2.095-1.361,3.222-2.899,6.327-2.232c0.214-0.613,0.565-1.089,1.24-1.24c0.924-1.14,1.693-2.833,2.605-4.218   c0.173-0.264,0.487-0.346,0.62-0.62c0.161-0.331,0.111-0.84,0.249-1.241c0.169-0.492,0.528-0.858,0.62-1.24   c0.208-0.859-0.067-1.379-0.248-1.86c-0.54-1.435-0.71-2.981-0.745-4.59c-0.469-0.179-0.238,0.341-0.62,0.248   c-0.623-1.628-0.442-2.841-0.744-4.838c-0.364-0.001-0.42,0.574-0.744,0.248c-0.189-0.847,0.702-1.147,0.372-1.736   c-0.37-0.356-0.368,0.361-0.868,0.248c0.145-1.013,0.766-1.55,0.744-2.73c-0.18-0.067-0.641,0.146-0.62-0.124   c0.387-0.854,0.843-1.637,0.992-2.729c-0.39-0.141-0.301,0.195-0.496,0.249c-0.463-0.998,0.7-1.991,0.372-2.853   c-0.401-0.154-0.094,0.4-0.496,0.248c0.21-1.774,1.229-2.74,2.232-3.722c0.259-1.147,0.96-1.851,0.993-3.225   c0.348-0.232,0.522-0.637,0.62-1.117c-0.165-0.304-0.461,0.136-0.496-0.125c0.206-0.333,0.67-0.951,0-1.116   c0.359-0.509,0.796-0.94,0.992-1.613c-0.002-0.205-0.344-0.069-0.373-0.248c1.172-0.806,0.737-2.802,0.373-4.218   c0.181-0.108,0.393-0.187,0.372-0.497c-0.268-0.683-0.753-1.149-1.116-1.737c0.226-0.674,0.447-1.325,0.495-1.86   c0.293-0.002,0.365,0.214,0.746,0.124c-0.778-1.074,0.227-2.457,0.992-3.101c1.049,0.059,1.212,1.187,1.861,1.86   c0.459,0.477,1.186,0.611,1.612,1.117c0.301,0.357,0.407,0.821,0.621,1.241c0.458,0.121,0.669,0.488,1.365,0.372   c0.368,0.541,1.051,0.768,1.364,1.364c0.483,1.212,1.015,2.375,1.24,3.846c1.144,0.675,2.435,1.204,2.605,2.853   c-0.615,0.304-1.269-0.036-1.985,0c0.15,0.402,0.561,0.742,0.62,1.24c0.101,0.85-0.431,1.492-0.249,2.233   c0.289,1.167,1.498,1.033,1.985,2.232c-0.234,0.056-0.748-0.168-0.62,0.249c0.582,0.369,1.191,0.71,1.736,1.116   c-0.46-0.088-0.532,0.211-0.992,0.124c0.02,0.559,0.768,0.391,0.744,0.993c-0.256,0.075-0.469,0.191-0.372,0.62   c0.36,0.136,0.881,0.112,1.24,0.248c-0.115,0.298-0.498,0.328-0.372,0.868c0.681,0.395,0.979,1.173,1.239,1.985   c0.803,0.396,1.598,0.801,2.234,1.364c0.039,0.168,0.177,0.236,0.123,0.497c1.241,0.5,1.529,1.953,2.357,2.729   c1.018,0.952,2.617,1.594,3.721,2.233c0.423,0.244,0.668,0.534,1.118,0.869c0.64,0.477,1.809,0.211,2.479,0.867   c0.535,1.109,1.608,1.501,2.233,2.358c0.651,0.891,0.736,1.991,1.612,2.852c1.12,0.163,1.729,0.836,2.48,1.366   c0,0.413,0.404,0.422,0.374,0.867c1.821,1.363,1.46,4.396,1.983,5.954c0.732,2.171,1.281,3.718,3.598,4.094   c1.37,0.223,2.864-0.421,3.722,0.495c-1.489-0.041-1.979,0.916-3.102,1.24c-0.391,0.228,0.417,0.832,0,1.03   C78.448,73.012,78.061,74,78.091,74c-0.373,0-0.744,0-1.116,0c0.06,0-0.228,0.271-0.373,0.582c-0.459-0.2-0.91-0.632-1.612-0.591   c-0.072,0.218,0.15,0.634-0.123,0.647c-0.345-0.193-0.69-0.433-1.116-0.542c0.018,0.307,0.022,0.577-0.249,0.597   c-1.114-0.333-1.508-1.781-2.604-1.751c-0.394-0.971-0.593-2.143-0.993-3.105c0.114-1.027-0.077-1.056-0.123-1.989   c-0.167-0.245-0.866,0.039-0.869-0.372c0.097-0.511-0.19-0.639-0.123-1.117c-0.625,0.169-0.411-0.5-0.621-0.745   c-0.158-0.174-0.608-0.055-0.621-0.373c-0.205-0.538-0.093-1.395-0.62-1.612c-1.002,2.14,0.309,3.739,0.994,5.582   c0.098,0.267,0.097,0.943,0.37,1.489c0.028,0.055,0.313,0.153,0.369,0.248c0.177,0.296,0.744,1.085,0.744,1.115   c0-0.021-0.563,0.634-0.625,0.745c-0.408,0.726-0.327,0.976-0.504,1.736c-0.497,2.126-1.973,3.97-1.382,6.327   c-0.65,0.798-1.342,1.589-1.649,2.729c1.104,0.674,1.886,1.601,3.155,2.109c1.199,1.737,3.247,2.771,4.239,4.713   C73.788,90.803,74,93.026,75,93.44v2.11c15-8.563,25.232-24.863,25.232-43.577C100.232,24.374,77.574,2,49.974,2z"
                        transform="translate(0,-2)" fill="#000000"></path>
                </g>
            </g>
        </g>
    </g>
    
</svg>